<?xml version="1.0" encoding="UTF-8" standalone="no"?>
<!-- Created with Inkscape (http://www.inkscape.org/) -->

<svg
   width="127.99999mm"
   height="128.00002mm"
   viewBox="0 0 127.99999 128.00002"
   version="1.1"
   id="svg1"
   xml:space="preserve"
   xmlns:inkscape="http://www.inkscape.org/namespaces/inkscape"
   xmlns:sodipodi="http://sodipodi.sourceforge.net/DTD/sodipodi-0.dtd"
   xmlns="http://www.w3.org/2000/svg"
   xmlns:svg="http://www.w3.org/2000/svg"><sodipodi:namedview
     id="namedview1"
     pagecolor="#ffffff"
     bordercolor="#000000"
     borderopacity="0.25"
     inkscape:showpageshadow="2"
     inkscape:pageopacity="0.0"
     inkscape:pagecheckerboard="0"
     inkscape:deskcolor="#d1d1d1"
     inkscape:document-units="mm"
     inkscape:zoom="0.26883397"
     inkscape:cx="-76.255245"
     inkscape:cy="-427.77333"
     inkscape:window-width="1920"
     inkscape:window-height="1010"
     inkscape:window-x="-6"
     inkscape:window-y="-6"
     inkscape:window-maximized="1"
     inkscape:current-layer="layer1"><inkscape:page
       x="-2.1319386e-22"
       y="8.6244339e-21"
       width="127.99999"
       height="128.00002"
       id="page2"
       margin="0"
       bleed="0" /></sodipodi:namedview><defs
     id="defs1" /><g
     inkscape:label="Layer 1"
     inkscape:groupmode="layer"
     id="layer1"
     transform="translate(-47.460135,-26.783505)"><g
       id="g8"
       transform="matrix(1.2239509,0,0,1.2456542,-11.833341,-42.132283)"><path
         style="fill:#d0d0d0;fill-opacity:1"
         d="m 75.938417,158.03514 -0.498397,-0.0472 -1.052171,-0.2138 -1.05217,-0.21381 -1.107548,-0.34024 -1.107549,-0.34025 -0.110754,-0.0346 -0.110755,-0.0346 -0.332265,-0.13763 -0.332264,-0.13762 -0.609152,-0.22866 -0.609151,-0.22865 -1.107548,-0.574 -1.107548,-0.574 -0.553774,-0.31616 -0.553774,-0.31616 -0.05538,-0.07 -0.05538,-0.07 -0.166132,-0.0622 -0.166133,-0.0622 -1.421339,-1.01174 -1.42134,-1.01174 -0.959297,-0.80079 -0.959298,-0.80079 -1.137757,-1.08019 -1.137757,-1.08019 -1.244063,-1.39498 -1.244063,-1.39499 -0.0453,-0.12502 -0.0453,-0.12502 -0.679658,-0.8332 -0.679658,-0.8332 -0.669131,-0.9968 -0.669132,-0.99679 -0.613318,-1.05217 -0.613319,-1.05217 -0.440828,-0.88604 -0.440828,-0.88604 -0.148214,-0.38764 -0.148213,-0.38764 -0.06735,-0.0554 -0.06735,-0.0554 -0.197396,-0.55377 -0.197397,-0.55378 -0.06424,-0.16613 -0.06424,-0.16613 -0.01349,-0.0554 -0.01349,-0.0554 -0.138416,-0.24919 -0.138415,-0.2492 h 0.05089 0.05089 l -0.213425,-0.60723 -0.213425,-0.60724 -0.06563,-0.41725 -0.06563,-0.41725 -0.09925,-0.12094 -0.09925,-0.12095 0.05252,-0.0525 0.05252,-0.0525 -0.115572,-0.38031 -0.115573,-0.3803 -0.04003,-0.27689 -0.04004,-0.27689 -0.132823,-1.25382 -0.132824,-1.25381 0.06322,-1.45968 0.06322,-1.45967 0.0617,-0.4984 0.0617,-0.4984 0.07138,-0.16613 0.07138,-0.16613 0.03283,-0.11076 0.03283,-0.11075 0.06776,-0.32883 0.06776,-0.32882 0.117753,-0.14188 0.117753,-0.14189 h -0.09109 -0.09109 l 0.132906,-0.1329 0.132906,-0.13291 v -0.20086 -0.20086 l 0.108823,-0.19232 0.108824,-0.19232 0.386508,-0.84668 0.386509,-0.84668 0.599429,-0.89556 0.599428,-0.89555 0.317363,-0.39555 0.317363,-0.39555 1.011372,-1.01873 1.011371,-1.01872 0.705329,-0.51332 0.705328,-0.51332 0.880527,-0.52933 0.880527,-0.52933 1.11306,-0.52368 1.113059,-0.52367 1.565746,-0.5606 1.565747,-0.56061 1.135885,-0.28793 1.135884,-0.28793 2.337713,-0.48412 2.337713,-0.48412 0.941416,-0.29814 0.941416,-0.29813 0.546191,-0.27603 0.546191,-0.27603 0.834492,-0.56941 0.834493,-0.5694 0.821068,-0.77529 0.821069,-0.77528 0.913361,-1.2183 0.913361,-1.21831 0.567484,-0.89626 0.567485,-0.89627 v -0.12822 -0.12821 h 0.110755 0.110754 v -0.12135 -0.12134 l 0.206462,-0.29399 0.206462,-0.29398 0.41503,-0.77529 0.41503,-0.77528 0.94704,-1.605945 0.947041,-1.605944 0.773466,-1.162926 0.773466,-1.162926 0.731448,-0.941415 0.731448,-0.941416 0.719906,-0.724093 0.719906,-0.724093 0.916224,-0.694909 0.916224,-0.694909 0.635292,-0.315202 0.635292,-0.315201 0.718958,-0.254166 0.718957,-0.254166 1.273681,-0.0052 1.27368,-0.0052 0.498397,0.203112 0.498396,0.203111 0.208187,0.184531 0.208187,0.18453 0.266738,0.419809 0.266738,0.41981 -0.01873,0.877408 -0.01873,0.877407 -0.34544,0.493724 -0.34544,0.493724 -0.886038,1.08521 -0.886039,1.08521 -0.326816,0.446493 -0.326817,0.446494 -0.272279,0.498397 -0.27228,0.498396 -0.210596,0.42389 -0.210597,0.423889 -0.21479,0.839819 -0.214789,0.839819 v 0.603136 0.603137 l 0.17394,0.680525 0.17394,0.68051 0.272279,0.58137 0.27228,0.58137 0.502859,0.56619 0.502858,0.56619 0.498559,0.38056 0.498558,0.38056 0.489742,0.23794 0.489741,0.23793 -0.110516,0.0683 -0.110517,0.0683 0.438328,-0.007 0.438328,-0.007 0.448304,-0.43781 0.448303,-0.43781 v 0.0914 0.0914 l 0.162591,-0.13494 0.162592,-0.13494 -0.02415,-0.0823 -0.02415,-0.0823 2.306046,-2.37137 2.306045,-2.37137 3.23277,-3.267267 3.23277,-3.267267 7.51247,-7.555711 7.51248,-7.555712 0.12349,0.02438 0.1235,0.02438 0.0101,-0.166132 0.0101,-0.166133 0.14164,0.03043 0.14164,0.03043 -0.061,-0.09866 -0.061,-0.09866 0.96725,-0.983947 0.96725,-0.983948 2.36837,-2.402456 2.36838,-2.402455 -0.42442,-1.141699 -0.42442,-1.141698 -0.0687,-0.110755 -0.0687,-0.110755 0.0206,-0.138443 0.0206,-0.138444 0.0139,-0.160212 0.0138,-0.160212 0.58146,-0.378791 0.58147,-0.378792 0.94141,-0.605572 0.94142,-0.605572 0.46478,-0.266603 0.46479,-0.266603 0.051,-0.194919 0.051,-0.194919 -0.0915,0.05658 -0.0916,0.05659 -0.21863,-0.277942 -0.21863,-0.277943 h -0.34951 -0.34952 l -0.31754,-0.164207 -0.31754,-0.164207 -0.0733,-0.333806 -0.0733,-0.333806 0.1272,-0.385415 0.12719,-0.385415 0.48412,-0.426135 0.48411,-0.426135 0.43474,-0.130249 0.43473,-0.13025 h 0.35214 0.35214 l 0.28531,0.285308 0.2853,0.285307 -0.0618,0.462288 -0.0618,0.462287 -0.0617,0.22151 -0.0617,0.221509 0.25683,0.309817 0.25682,0.309817 1.26534,-0.791849 1.26534,-0.79185 0.0955,-0.08974 0.0955,-0.08974 -0.31704,-0.397333 -0.31703,-0.397332 -0.42036,-4e-6 -0.42037,-3e-6 -0.27185,-0.271853 -0.27185,-0.271852 -0.0128,-0.143478 -0.0128,-0.143478 -0.0174,-0.166132 -0.0174,-0.166132 0.19313,-0.404618 0.19312,-0.404618 0.40755,-0.335934 0.40755,-0.335935 0.54007,-0.129562 0.54008,-0.129562 0.3833,0.07191 0.3833,0.07191 0.13564,0.244432 0.13563,0.244433 -0.01,0.05538 -0.01,0.05538 -0.0698,0.664529 -0.0698,0.664529 0.25958,0.322587 0.25957,0.322587 0.59968,-0.385316 0.59968,-0.385316 0.4984,-0.324913 0.49839,-0.324913 0.19382,-0.0795 0.19383,-0.0795 v -0.115877 -0.115877 l -0.2492,-0.384718 -0.2492,-0.384717 -0.31553,-0.0014 -0.31552,-0.0014 -0.37378,-0.177371 -0.37379,-0.177371 -0.0693,-0.369184 -0.0693,-0.369184 0.12381,-0.375157 0.12381,-0.375156 0.35828,-0.347258 0.35828,-0.347259 0.48422,-0.170842 0.48422,-0.170843 h 0.31113 0.31113 l 0.26713,0.101562 0.26713,0.101563 0.14053,0.501926 0.14053,0.501927 -0.11107,0.318632 -0.11108,0.318631 0.1118,0.213116 0.1118,0.213116 0.15267,0.245418 0.15268,0.245419 0.41525,-0.235499 0.41526,-0.235498 0.55377,-0.357383 0.55378,-0.357383 0.60156,-0.178622 0.60157,-0.178622 h 0.35767 0.35767 l 0.67821,0.211082 0.67821,0.211081 0.63303,0.515819 0.63302,0.515818 1.42111,1.400318 1.42111,1.400317 0.15715,0.303888 0.15715,0.303888 v 0.330555 0.330554 l -0.11783,0.311786 -0.11783,0.311786 -0.43595,0.518267 -0.43594,0.518266 -0.004,0.09089 -0.004,0.09089 -0.26808,0.304575 -0.26807,0.304576 h -0.0672 -0.0672 l 0.079,-0.127867 0.079,-0.127868 -0.12967,0.08014 -0.12968,0.08014 0.0639,0.10331 0.0639,0.103309 -0.28054,0.106661 -0.28054,0.106662 -0.70168,-0.06552 -0.70168,-0.06552 -0.64588,0.187762 -0.64588,0.187763 -0.28909,0.182625 -0.28908,0.182625 -0.62503,0.642863 -0.62503,0.642863 -0.27515,0.579038 -0.27515,0.579038 -0.28383,0.609151 -0.28382,0.609152 -0.40738,1.102554 -0.40739,1.102555 -0.0255,0.115748 -0.0255,0.115749 -0.0806,0.185172 -0.0806,0.185172 -0.0301,0.147092 -0.0301,0.147093 -0.0635,0.166132 -0.0635,0.166132 -0.18939,0.609152 -0.18938,0.609151 -0.0813,0.110755 -0.0814,0.110755 -0.25167,0.766799 -0.25168,0.766799 -0.43014,0.466647 -0.43014,0.466647 -0.56652,0.243713 -0.56653,0.243713 -0.51079,-0.04518 -0.51079,-0.04518 -1.49519,-0.463567 -1.49519,-0.463567 -0.63962,-0.132798 -0.63961,-0.132799 -0.8225,0.881082 -0.82249,0.881083 -0.005,0.0964 -0.005,0.0964 -1.1969,1.288034 -1.19691,1.288034 -1.55764,1.772077 -1.55764,1.772077 -0.23583,0.210987 -0.23584,0.210986 v 0.113326 0.113326 l -0.80297,0.848408 -0.80297,0.848409 -0.94142,1.087617 -0.94141,1.087617 -0.71991,0.793828 -0.7199,0.793827 -1.35237,1.542159 -1.35237,1.54216 -0.44197,0.443019 -0.44196,0.443019 -0.005,0.09668 -0.005,0.09668 -1.04587,1.177002 -1.04587,1.177002 -0.86465,0.969639 -0.86465,0.969639 -0.74759,0.810823 -0.7476,0.810824 v 0.09481 0.0948 l -0.85835,0.91285 -0.85835,0.91285 -0.83066,0.95139 -0.83066,0.95138 -0.77528,0.88122 -0.77529,0.88122 -0.96503,1.08314 -0.96503,1.08315 -0.86242,0.99238 -0.86243,0.99237 -0.7199,0.80481 -0.71991,0.80481 -0.69245,0.80555 -0.69245,0.80556 -0.82882,0.94141 -0.82881,0.94142 -0.002,0.68501 -0.002,0.685 0.11695,0.31179 0.11694,0.31179 0.27986,0.40681 0.27986,0.40682 0.6133,0.30005 0.61329,0.30006 1.28806,-0.0578 1.28807,-0.0578 0.94142,-0.30224 0.94141,-0.30224 0.84381,-0.42379 0.8438,-0.42378 0.70676,-0.23934 0.70677,-0.23933 0.62171,0.0552 0.62171,0.0553 0.49939,0.22091 0.4994,0.2209 0.44576,0.40272 0.44577,0.40273 0.18616,0.39231 0.18616,0.3923 0.0655,0.51882 0.0655,0.51882 -0.0126,0.27688 -0.0126,0.27689 -0.0594,0.35994 -0.0594,0.35995 -0.33594,0.69222 -0.33594,0.69223 -0.13693,0.22151 -0.13693,0.22151 -0.59425,0.69611 -0.59425,0.69611 -0.91772,0.72964 -0.91771,0.72964 -0.42625,0.25815 -0.42624,0.25815 -1.30216,0.67089 -1.30215,0.67088 -0.74681,0.2834 -0.74681,0.2834 -1.68744,0.6024 -1.68744,0.60241 -0.37404,0.21008 -0.37404,0.21009 -0.26437,0.14886 -0.26437,0.14885 -0.44108,0.33227 -0.441079,0.33226 -0.749826,0.77204 -0.749826,0.77203 -0.06255,0.19707 -0.06255,0.19707 h -0.0947 -0.0947 l -0.121972,0.36958 -0.121972,0.36958 -0.223196,0.23957 -0.223197,0.23957 h 0.06873 0.06873 l -0.239576,0.38765 -0.239576,0.38764 h 0.07344 0.07344 l -0.230664,0.37322 -0.230663,0.37322 -0.329854,1.25725 -0.329854,1.25726 -0.176266,0.86421 -0.176265,0.86421 -0.03289,0.24649 -0.03289,0.2465 -0.06088,0.16613 -0.06088,0.16614 -0.186993,0.83066 -0.186992,0.83066 -0.494649,1.65916 -0.494649,1.65916 -0.384855,0.92972 -0.384855,0.92971 -0.640201,1.28754 -0.640201,1.28755 -0.545227,0.82072 -0.545228,0.82072 -0.124489,0.21082 -0.124489,0.21083 -0.290842,0.30357 -0.290841,0.30357 v 0.10688 0.10689 l -1.024482,1.00327 -1.024482,1.00327 -0.553774,0.44466 -0.553774,0.44466 -0.628576,0.39836 -0.628576,0.39836 -0.645104,0.33153 -0.645105,0.33153 -0.729,0.32987 -0.729,0.32988 -0.419161,0.0666 -0.41916,0.0666 -0.08688,0.0537 -0.08688,0.0537 -0.8693,0.17261 -0.869299,0.17261 -1.772077,0.0375 -1.772078,0.0375 z m 2.630427,-0.11663 -0.193821,-0.0506 -0.193821,0.0506 -0.193821,0.0506 h 0.387642 0.387642 z m 5.397306,-24.7635 0.168123,-0.24003 -4.74e-4,-0.27993 -4.74e-4,-0.27993 -0.328296,-0.49487 -0.328296,-0.49486 -0.06867,-0.31264 -0.06867,-0.31265 0.133101,-0.16037 0.1331,-0.16038 0.08566,0.0529 0.08566,0.0529 0.150993,-0.18618 0.150993,-0.18617 -0.166133,0.0933 -0.166132,0.0933 0.377503,-0.39996 0.377502,-0.39997 0.07486,0.0463 0.07486,0.0463 0.484426,-0.49359 0.484426,-0.4936 h -0.100164 -0.100164 l 0.37154,-0.38333 0.37154,-0.38333 0.07566,0.0468 0.07566,0.0468 0.37154,-0.38333 0.37154,-0.38333 h -0.09883 -0.09883 l 0.37154,-0.38333 0.37154,-0.38333 0.08555,0.0529 0.08555,0.0529 0.08014,-0.12967 0.08014,-0.12967 -0.155556,0.0937 -0.155556,0.0937 0.150992,-0.18618 0.150993,-0.18617 0.07788,0.0481 0.07788,0.0481 0.196103,-0.33197 0.196103,-0.33198 -0.06019,-0.15685 -0.06019,-0.15685 0.107724,-0.0666 0.107725,-0.0666 -0.06372,-0.1031 -0.06372,-0.1031 0.0896,-5.5e-4 0.0896,-5.4e-4 0.02928,-0.50538 0.02928,-0.50537 -0.140037,0.0842 -0.140037,0.0842 0.128393,-0.1597 0.128392,-0.15971 -0.218254,-0.38764 -0.218254,-0.38764 0.0587,0.19382 0.0587,0.19382 h -0.05042 -0.05042 l -0.152784,-0.35995 -0.152784,-0.35995 -0.76243,-0.77258 -0.762429,-0.77257 0.553774,0.49568 0.553774,0.49569 -0.489055,-0.52128 -0.489055,-0.52128 -0.07631,0.0472 -0.07631,0.0472 -0.256915,-0.27347 -0.256915,-0.27348 h 0.09774 0.09774 l -0.484426,-0.49359 -0.484426,-0.4936 -0.08354,0.0516 -0.08354,0.0516 -0.230378,-0.29287 -0.230379,-0.29288 v -0.27255 -0.27254 l 0.229979,-0.32297 0.229979,-0.32298 0.129974,0.0744 0.129975,0.0744 -0.07943,-0.088 -0.07943,-0.088 0.439383,-0.49917 0.439384,-0.49916 v -0.15054 -0.15054 h 0.110755 0.110755 v -0.21497 -0.21498 l -0.112562,-0.0696 -0.112561,-0.0696 0.05377,-0.087 0.05377,-0.087 -0.26134,-0.24551 -0.261339,-0.24552 -0.615914,-0.0836 -0.615915,-0.0836 0.04479,0.0725 0.04479,0.0725 -0.465493,0.20924 -0.465493,0.20924 -0.08307,-0.0241 -0.08307,-0.0241 v 0.10172 0.10172 l -0.415331,0.2552 -0.415331,0.25519 -0.202259,0.22455 -0.202259,0.22455 0.08446,-0.16128 0.08446,-0.16127 -0.712864,0.69506 -0.712864,0.69506 -2.291507,2.29046 -2.291507,2.29046 -0.356655,0.4984 -0.356655,0.49839 -0.120708,0.0814 -0.120708,0.0814 0.0896,0.002 0.0896,0.002 -0.08649,0.13844 -0.08649,0.13844 -0.0355,0.16614 -0.0355,0.16613 -0.06463,0.67706 -0.06463,0.67706 0.124701,0.0771 0.124702,0.0771 -0.0017,0.13191 -0.0017,0.1319 -0.107363,-0.16613 -0.107363,-0.16613 -0.0017,0.19382 -0.0017,0.19382 h 0.122605 0.122604 l -0.06596,0.17189 -0.06596,0.17188 0.109487,-0.0677 0.109486,-0.0677 v 0.12788 0.12788 l 0.231896,0.32567 0.231896,0.32567 0.02389,0.16278 0.02389,0.16279 0.370913,0.38268 0.370913,0.38269 0.07626,-0.0471 0.07626,-0.0471 0.314556,0.32833 0.314557,0.32832 h -0.09682 -0.09682 l 0.314557,0.32833 0.314556,0.32833 0.08245,-0.051 0.08245,-0.051 1.851828,1.91003 1.851827,1.91004 0.07005,-0.0155 0.07005,-0.0155 0.317278,0.22592 0.317277,0.22592 0.347251,0.0755 0.347252,0.0755 0.302585,-0.20897 0.302585,-0.20897 z m -2.552337,-0.32918 -0.325297,-0.35996 0.359953,0.3253 0.359953,0.3253 v 0.0346 0.0347 h -0.03466 -0.03466 z m 3.551121,-3.73798 0.432597,-0.44302 h 0.05538 0.05538 l -0.432597,0.44302 -0.432597,0.44302 h -0.05538 -0.05538 z m -7.373578,0.0277 -0.268504,-0.30457 0.304576,0.2685 0.304575,0.2685 v 0.0361 0.0361 h -0.03607 -0.03607 z m 4.327821,-0.63684 v -0.0554 h 0.05538 0.05538 v 0.0554 0.0554 h -0.05538 -0.05538 z m 0.20305,-0.0314 -0.03692,-0.0868 -0.706054,-0.53948 -0.706054,-0.53949 -0.216503,-0.36694 -0.216504,-0.36695 -0.369308,-0.22824 -0.369308,-0.22825 -0.419904,-0.55061 -0.419904,-0.55062 h -0.109723 -0.109722 l 0.381533,0.41533 0.381534,0.41534 -0.470562,-0.43781 -0.470562,-0.43781 v -0.0394 -0.0394 l 0.138443,0.0701 0.138444,0.0701 -0.193821,-0.15887 -0.193821,-0.15886 v -0.21347 -0.21346 l 0.52989,-0.52192 0.529889,-0.52192 h 0.228709 0.228709 l 0.875035,0.93637 0.875035,0.93637 0.0026,0.19887 0.0026,0.19886 0.176924,-0.0293 0.176923,-0.0293 0.568044,0.5333 0.568044,0.53331 0.0044,-0.061 0.0044,-0.061 0.174501,0.32226 0.174501,0.32226 0.08676,0.30251 0.08676,0.3025 -0.463706,0.4551 -0.463706,0.45509 h -0.180399 -0.180399 z m 1.110688,-0.72541 0.122558,-0.14768 h -0.145915 -0.145915 v 0.14768 0.14767 h 0.02336 0.02336 z m -3.263587,-4.07316 -0.30669,-0.32012 h -0.102303 -0.102304 l 0.261468,0.21783 0.261469,0.21782 -0.09663,0.004 -0.09663,0.004 0.136865,0.16491 0.136865,0.16492 0.107288,-0.0663 0.107287,-0.0663 z m 0.0011,0.21654 -0.07903,-0.12786 0.127867,0.079 0.127868,0.079 v 0.0488 0.0488 h -0.04884 -0.04884 z m -3.762055,3.86585 -0.325297,-0.35996 0.359954,0.3253 0.359953,0.3253 v 0.0346 0.0347 h -0.03466 -0.03466 z m 10.030278,0.10378 v -0.0346 l 0.359954,-0.3253 0.359953,-0.3253 -0.325297,0.35996 -0.325297,0.35995 h -0.03466 -0.03466 z m 1.827455,-1.95893 0.06845,-0.11075 h 0.05538 0.05538 l -0.06845,0.11075 -0.06845,0.11076 h -0.05538 -0.05538 z m -3.769131,-0.88952 -0.661062,-0.668 -0.0037,-0.26582 -0.0037,-0.26582 -0.194804,-0.21525 -0.194804,-0.21526 h -0.274599 -0.274599 l -0.634492,-0.59152 -0.634491,-0.59152 -0.117369,-0.2556 -0.117369,-0.2556 -0.05324,0.0532 -0.05324,0.0532 -0.01831,-0.24305 -0.01831,-0.24305 0.104156,0.16474 0.104156,0.16473 0.01481,-0.16613 0.01481,-0.16613 -0.01586,-0.0913 -0.01586,-0.0913 0.09655,0.0597 0.09655,0.0597 0.314557,-0.32832 0.314556,-0.32833 h -0.08966 -0.08966 l 0.137878,-0.16613 0.137877,-0.16613 h 0.18857 0.18857 l 0.190601,0.19382 0.190601,0.19382 0.169255,0.22151 0.169255,0.22151 -0.08559,-0.16613 -0.08559,-0.16614 1.664064,1.63413 1.664064,1.63413 -0.04847,0.35946 -0.04847,0.35946 -0.453729,0.47071 -0.45373,0.4707 H 85.187605 84.958 Z m 1.00382,0.47627 -0.21795,-0.0553 -0.391202,-0.28676 -0.391201,-0.28675 0.325297,0.3549 0.325297,0.3549 0.283855,-0.0129 0.283854,-0.0129 z m 1.048611,-1.3949 v -0.0361 l -0.304575,-0.2685 -0.304576,-0.26851 0.268504,0.30458 0.268505,0.30458 h 0.03607 0.03607 z m -1.218303,-1.21408 v -0.0319 l -0.581462,-0.54961 -0.581463,-0.54961 0.54961,0.58146 0.549611,0.58146 h 0.03185 0.03185 z m -2.697568,-2.4927 -0.205586,-0.0436 -0.107388,0.10739 -0.107388,0.10739 0.312974,-0.0638 0.312973,-0.0638 z m 5.798703,5.23805 v -0.0554 h 0.05538 0.05538 v 0.0554 0.0554 h -0.05538 -0.05538 z m -6.756044,-0.22151 v -0.0554 h 0.05538 0.05538 v 0.0554 0.0554 h -0.05538 -0.05538 z m 6.977554,-1.21831 v -0.0554 h 0.05538 0.05538 v 0.0554 0.0554 h -0.05538 -0.05538 z m -0.110755,-0.60915 v -0.14767 l 0.07384,0.0738 0.07384,0.0738 -0.07384,0.0738 -0.07384,0.0738 z m -2.940214,-3.46109 -0.437808,-0.4707 0.470708,0.4378 0.470708,0.43781 v 0.0329 0.0329 h -0.0329 -0.0329 z m -1.822243,10.60478 v -0.0554 h -0.05538 -0.05538 v 0.0554 0.0554 h 0.05538 0.05538 z m -2.547361,-13.06907 v -0.0554 h -0.05538 -0.05538 v 0.0554 0.0554 h 0.05538 0.05538 z m 2.658116,-2.10434 v -0.0554 h -0.05538 -0.05538 v 0.0554 0.0554 h 0.05538 0.05538 z m 0.406101,-0.23997 -0.07384,-0.0738 -0.07384,0.0738 -0.07384,0.0738 h 0.147673 0.147673 z m 1.255221,-0.14767 -0.166132,-0.10737 -0.387642,0.014 -0.387642,0.014 0.443019,0.0793 0.44302,0.0793 0.110754,0.014 0.110755,0.014 z m 63.536347,-50.467281 -0.0738,-0.07384 -0.0738,0.07384 -0.0738,0.07384 h 0.14767 0.14768 z m -14.36121,-1.304062 v -0.04884 l -0.12786,-0.07903 -0.12787,-0.07903 0.079,0.127868 0.079,0.127867 h 0.0488 0.0488 z M 135.85677,60.586 v -0.05538 h -0.0554 -0.0554 v 0.05538 0.05538 h 0.0554 0.0554 z m 10.41095,-3.765663 v -0.05538 h -0.0554 -0.0554 v 0.05538 0.05538 h 0.0554 0.0554 z m -49.562776,47.236923 0.06845,-0.11075 h 0.05538 0.05538 l -0.06845,0.11075 -0.06845,0.11076 h -0.05538 -0.05538 z M 123.11997,77.420732 v -0.05538 h 0.0554 0.0554 v 0.05538 0.05538 h -0.0554 -0.0554 z"
         id="path10" /><path
         style="fill:#b9b9b9;fill-opacity:1"
         d="m 83.192857,133.73955 0.06845,-0.11075 h 0.05538 0.05538 l -0.06845,0.11075 -0.06845,0.11076 h -0.05538 -0.05538 z m -0.609151,-0.0554 v -0.0554 h 0.05538 0.05538 v 0.0554 0.0554 h -0.05538 -0.05538 z m 1.384435,-1.05217 v -0.53263 l 0.08137,0.12787 0.08137,0.12787 v 0.27689 0.27688 l -0.08137,0.12787 -0.08137,0.12787 z m -4.04453,-1.30137 -1.160946,-1.19062 1.190614,1.16095 1.190614,1.16095 v 0.0297 0.0297 h -0.02967 -0.02967 z m 3.701689,0.39822 -0.07903,-0.12787 0.127867,0.079 0.127868,0.079 v 0.0488 0.0488 h -0.04884 -0.04884 z m -0.228092,-0.37531 -0.06558,-0.17091 0.05499,-0.055 0.05499,-0.055 0.05907,0.22591 0.05907,0.2259 h -0.04848 -0.04849 z m 0.05801,-0.86376 0.123355,-0.14864 -0.0821,-0.10056 -0.0821,-0.10057 0.103778,0.0853 0.103778,0.0853 0.449996,-0.4172 0.449996,-0.41721 -0.549611,0.58109 -0.54961,0.58108 h -0.04541 -0.04541 z m 1.454335,-1.45732 0.375717,-0.38764 h 0.05538 0.05538 l -0.375717,0.38764 -0.375718,0.38765 h -0.05538 -0.05538 z m -4.431855,-1.91052 -1.382773,-1.41212 1.412124,1.38277 1.412124,1.38278 v 0.0293 0.0293 h -0.02935 -0.02935 z m -3.874756,1.02449 v -0.0554 h 0.05538 0.05538 v 0.0554 0.0554 h -0.05538 -0.05538 z m -0.176709,-0.51551 -0.07903,-0.12787 0.127867,0.079 0.127868,0.079 v 0.0488 0.0488 h -0.04884 -0.04884 z m 7.060102,-0.25264 -0.01659,-0.32513 -0.246075,-0.28402 -0.246074,-0.28403 0.310376,0.28833 0.310377,0.28833 -0.04771,0.32082 -0.04771,0.32083 z m 2.973785,0.10362 v -0.0554 h 0.05538 0.05538 v 0.0554 0.0554 H 86.5155 86.46012 Z M 75.827662,127.2604 v -0.0554 h 0.05538 0.05538 v 0.0554 0.0554 h -0.05538 -0.05538 z m -0.449086,-0.79124 -0.111339,-0.29285 -0.06916,-0.11191 -0.06916,-0.11191 0.118408,0.0732 0.118408,0.0732 0.05609,-0.13913 0.05609,-0.13913 0.01774,0.16613 0.01774,0.16613 0.02235,0.30458 0.02235,0.30457 h -0.03409 -0.03409 z m 0.116822,-0.20556 v -0.0554 h -0.05538 -0.05538 v 0.0554 0.0554 h 0.05538 0.05538 z m 5.757817,-1.4675 -1.604512,-1.63363 1.633634,1.60451 1.633633,1.60451 v 0.0291 0.0291 h -0.02912 -0.02912 z m 6.646722,1.24599 v -0.0554 h 0.05538 0.05538 v 0.0554 0.0554 h -0.05538 -0.05538 z m 0.166132,-0.27688 0.06845,-0.11076 h 0.05538 0.05538 l -0.06845,0.11076 -0.06845,0.11075 h -0.05538 -0.05538 z m -12.939854,-0.0738 -0.07384,-0.0738 v -0.45983 -0.45984 l 0.173667,-0.5848 0.173667,-0.5848 0.04265,0.0426 0.04265,0.0427 -0.171487,0.585 -0.171487,0.585 0.03904,0.49082 0.03904,0.49083 h -0.01003 -0.01003 z m 9.598992,-2.4e-4 0.07408,-0.0741 -0.194062,-0.2305 -0.194063,-0.23049 0.246587,0.20862 0.246586,0.20862 -0.0593,0.096 -0.0593,0.096 h -0.0673 -0.0673 z m 1.208832,-0.53888 0.526085,-0.55758 v -0.26436 -0.26436 l -0.193821,-0.23023 -0.193821,-0.23023 0.249199,0.21099 0.249198,0.21098 v 0.29158 0.29157 l -0.581463,0.54961 -0.581463,0.54961 z m 2.298162,0.28069 v -0.14767 l 0.07384,0.0738 0.07384,0.0738 -0.07384,0.0738 -0.07384,0.0738 z m 0.186435,-0.66453 0.0659,-0.49839 0.03996,-0.0461 0.03996,-0.0462 -0.0078,0.32304 -0.0078,0.32303 -0.09808,0.22151 -0.09808,0.22151 z m -10.302041,0.0369 -0.07384,-0.0738 v -0.23491 -0.2349 l 0.581463,-0.54961 0.581463,-0.54961 -0.540722,0.57244 -0.540722,0.57244 0.05465,0.28591 0.05466,0.28591 h -0.02156 -0.02156 z m 5.414046,-0.47428 -0.427077,-0.43737 -0.06611,0.022 -0.06611,0.022 -0.03064,-0.11075 -0.03064,-0.11076 -0.688639,-0.7199 -0.688638,-0.71991 1.245366,1.21642 1.245366,1.21641 v 0.0296 0.0296 h -0.0329 -0.0329 z M 83.026725,123.827 v -0.0554 h -0.05538 -0.05538 v 0.0554 0.0554 h 0.05538 0.05538 z m 5.426986,0.22151 v -0.0554 h 0.05538 0.05538 v 0.0554 0.0554 h -0.05538 -0.05538 z m -0.110755,-0.27689 v -0.14767 l 0.07384,0.0738 0.07384,0.0738 -0.07384,0.0738 -0.07384,0.0738 z m -0.110755,-0.33226 v -0.14768 l 0.07384,0.0738 0.07384,0.0738 -0.07384,0.0738 -0.07384,0.0738 z m -12.736803,-0.0554 v -0.0554 h 0.05538 0.05538 v 0.0554 0.0554 h -0.05538 -0.05538 z m 12.515293,-0.44302 v -0.0554 h 0.05538 0.05538 v 0.0554 0.0554 h -0.05538 -0.05538 z m -0.28741,-0.41533 -0.210986,-0.2492 0.249198,0.21099 0.249198,0.21098 v 0.0382 0.0382 h -0.03821 -0.03821 z m -9.292881,-2.29816 2.434718,-2.43661 h 0.05538 0.05538 l -2.434718,2.43661 -2.434718,2.4366 h -0.05538 -0.05538 z m 6.413256,2.1874 -0.210986,-0.24919 0.249198,0.21098 0.249198,0.21099 v 0.0382 0.0382 h -0.03821 -0.03821 z m 2.613261,-0.24919 v -0.0554 h 0.05538 0.05538 v 0.0554 0.0554 h -0.05538 -0.05538 z m -6.327151,-0.2492 -0.152005,-0.19382 0.193821,0.152 0.193821,0.15201 v 0.0418 0.0418 h -0.04182 -0.04182 z m 3.270818,0.0659 -0.07903,-0.12787 0.127867,0.079 0.127867,0.079 v 0.0488 0.0488 h -0.04884 -0.04884 z m 2.658115,-0.11075 -0.07903,-0.12787 0.127867,0.079 0.127868,0.079 v 0.0488 0.0488 h -0.04884 -0.04884 z m -6.025561,-0.25978 v -0.0554 h 0.05538 0.05538 v 0.0554 0.0554 h -0.05538 -0.05538 z m 0.498397,-0.83066 0.545447,-0.55377 h 0.05538 0.05538 l -0.545447,0.55377 -0.545447,0.55378 h -0.05538 -0.05538 z m 1.924082,0.35995 -0.152005,-0.19382 0.193821,0.15201 0.193821,0.152 v 0.0418 0.0418 h -0.04182 -0.04182 z m -0.494846,-0.48782 -0.07903,-0.12786 0.127867,0.079 0.127868,0.079 v 0.0488 0.0488 h -0.04884 -0.04884 z m -0.332264,-0.33226 -0.07903,-0.12787 0.127867,0.079 0.127867,0.079 v 0.0488 0.0488 h -0.04884 -0.04884 z m 2.550765,-0.10157 -0.202909,-0.22421 -0.0236,-0.16082 -0.0236,-0.16082 h 0.02486 0.02486 l 0.30669,0.32012 0.30669,0.32011 -0.105035,0.0649 -0.105034,0.0649 z m 0.284059,0.0805 v -0.0382 l -0.249199,-0.21099 -0.249198,-0.21098 0.210987,0.24919 0.210986,0.2492 h 0.03821 0.03821 z m -1.033712,-1.14317 -0.07384,-0.0738 v -0.30024 -0.30025 l 0.193821,-0.152 0.19382,-0.15201 -0.151163,0.19281 -0.151163,0.19281 0.04892,0.33328 0.04891,0.33327 h -0.01774 -0.01774 z m 0.922957,-1.75362 0.260122,-0.27689 h 0.05538 0.05538 l -0.260122,0.27689 -0.260122,0.27689 h -0.05538 -0.05538 z m -3.987173,-0.11076 v -0.0554 h 0.05538 0.05538 v 0.0554 0.0554 h -0.05538 -0.05538 z m 0.387642,-0.27688 0.200463,-0.22151 h 0.05538 0.05538 l -0.200464,0.22151 -0.200463,0.22151 h -0.05538 -0.05538 z m 3.994294,-0.14322 0.07562,-0.1986 0.062,0.062 0.062,0.062 -0.137621,0.1366 -0.137622,0.1366 z m -3.385143,-0.34162 v -0.0418 l 0.193821,-0.15201 0.193821,-0.152 -0.152005,0.19382 -0.152005,0.19382 h -0.04182 -0.04182 z m 3.508556,-0.35615 -0.06569,-0.40479 -0.198555,-0.23546 -0.198555,-0.23546 0.247033,0.20902 0.247032,0.20903 0.07084,0.3776 0.07084,0.3776 -0.05363,0.0536 -0.05363,0.0536 z m -2.954782,-0.10043 v -0.0554 h 0.05538 0.05538 v 0.0554 0.0554 h -0.05538 -0.05538 z m 0.332265,-0.22151 v -0.0554 h 0.05538 0.05538 v 0.0554 0.0554 h -0.05538 -0.05538 z m 0.498396,-0.27688 0.06845,-0.11076 h 0.05538 0.05538 l -0.06845,0.11076 -0.06845,0.11075 h -0.05538 -0.05538 z m 0.609152,-0.27689 v -0.0554 h 0.05538 0.05538 v 0.0554 0.0554 h -0.05538 -0.05538 z m 0.775283,0 v -0.0554 h 0.05538 0.05538 v 0.0554 0.0554 h -0.05538 -0.05538 z"
         id="path9" /><path
         style="fill:#a3a3a3;fill-opacity:1"
         d="m 82.43614,133.58009 -0.313698,-0.16913 -2.980059,-2.89712 -2.980058,-2.89712 -0.291796,-0.38257 -0.291796,-0.38256 -0.0346,-0.34937 -0.0346,-0.34937 -0.0088,-0.16613 -0.0088,-0.16613 -0.09343,0.14737 -0.09343,0.14738 -0.07101,-0.35504 -0.07101,-0.35505 v -0.36213 -0.36213 l 0.23316,-0.75926 0.233161,-0.75926 2.729531,-2.75197 2.729531,-2.75198 1.031389,-0.86582 1.031388,-0.86581 0.71547,-0.35579 0.715469,-0.35578 0.398909,0.0647 0.398908,0.0647 0.205607,0.18607 0.205607,0.18607 0.06806,0.36281 0.06806,0.36281 -0.07791,0.24546 -0.07791,0.24546 -0.707897,0.81169 -0.707896,0.81168 v 0.24779 0.24779 l 0.284711,0.29718 0.284711,0.29717 0.02558,0.17428 0.02558,0.17428 0.198513,0.21935 0.198512,0.21936 0.13767,-0.0528 0.13767,-0.0528 1.178303,1.23733 1.178304,1.23734 0.235024,0.62273 0.235025,0.62273 -0.05815,0.58087 -0.05815,0.58088 -0.254765,0.51012 -0.254766,0.51012 -2.086384,2.01014 -2.086384,2.01014 -0.111752,-0.0304 -0.111752,-0.0304 0.06542,0.10585 0.06542,0.10584 -0.112561,0.0696 -0.112562,0.0696 v 0.39834 0.39834 l 0.304576,0.39809 0.304576,0.3981 v 0.52301 0.52301 l -0.228131,0.22813 -0.22813,0.22813 -0.381021,0.0567 -0.381021,0.0567 z m 0.618274,-5.55307 0.526085,-0.50192 v -0.24195 -0.24195 l -1.909334,-1.91168 -1.909333,-1.91167 h -0.329647 -0.329647 l -0.52989,0.52192 -0.52989,0.52192 v 0.22452 0.22452 l 1.909334,1.91167 1.909334,1.91168 0.333451,-0.003 0.333451,-0.003 z m -6.451468,-0.31707 v -0.0488 l -0.127868,-0.079 -0.127867,-0.079 0.07903,0.12787 0.07903,0.12786 h 0.04884 0.04884 z m 9.441848,-2.58883 0.526085,-0.51051 v -0.25956 -0.25956 l -1.965898,-1.93127 -1.965898,-1.93127 -0.273083,-7.4e-4 -0.273082,-7.4e-4 -0.52989,0.52192 -0.52989,0.52192 v 0.2835 0.28349 l 0.935097,0.93024 0.935097,0.93024 -0.02137,0.11445 -0.02137,0.11445 0.137015,0.005 0.137016,0.005 0.837218,0.80525 0.837217,0.80525 -0.05274,0.0853 -0.05274,0.0853 0.407562,-0.0436 0.407561,-0.0436 z M 82.91597,123.827 v -0.0554 h 0.05538 0.05538 v 0.0554 0.0554 h -0.05538 -0.05538 z m -7.531327,2.4366 v -0.0554 h 0.05538 0.05538 v 0.0554 0.0554 h -0.05538 -0.05538 z m 9.791278,-6.17458 -0.210987,-0.24919 0.249198,0.21098 0.249199,0.21099 v 0.0382 0.0382 h -0.03821 -0.03821 z"
         id="path8" /></g></g></svg>
